<?xml version="1.0" encoding="UTF-8"?>
<svg width="277px" height="50px" viewBox="0 0 277 50" version="1.1" xmlns="http://www.w3.org/2000/svg" xmlns:xlink="http://www.w3.org/1999/xlink">
    <!-- Generator: Sketch 62 (91390) - https://sketch.com -->
    <title>Group 65</title>
    <desc>Created with Sketch.</desc>
    <defs>
        <polygon id="path-1" points="8.86035313e-05 0.120057785 38.8633695 0.120057785 38.8633695 30.0794812 8.86035313e-05 30.0794812"></polygon>
        <polygon id="path-3" points="0.0291948636 0.120057785 19.3553971 0.120057785 19.3553971 30.0794369 0.0291948636 30.0794369"></polygon>
    </defs>
    <g id="Homepage" stroke="none" stroke-width="1" fill="none" fill-rule="evenodd">
        <g id="Home-1920px" transform="translate(-339.000000, -31.000000)">
            <g id="Group-65" transform="translate(339.610000, 30.648570)">
                <polygon id="Fill-1" fill="#E42329" points="255.000742 0.443194864 255.079599 25.412999 275.652896 0.443194864"></polygon>
                <polygon id="Fill-2" fill="#E42329" points="212.00322 0.443194864 212.00322 50.3841323 228.994276 29.7590022 228.994276 0.443194864"></polygon>
                <polygon id="Fill-3" fill="#E42329" points="233.506765 0.443194864 233.506765 50.3841323 250.498708 29.7590022 250.498708 0.443194864"></polygon>
                <g id="Group-64" transform="translate(0.000000, 0.322960)">
                    <g id="Group-6">
                        <mask id="mask-2" fill="white">
                            <use xlink:href="#path-1"></use>
                        </mask>
                        <g id="Clip-5"></g>
                        <path d="M33.0403454,0.119969181 L30.044217,13.0321618 C29.4957612,15.3531313 28.8206022,18.6443095 28.06127,22.9907557 C27.259408,19.108592 26.5000758,15.7748841 25.7823872,13.0321618 L22.4491223,0.119969181 L16.7102716,0.119969181 L13.2923904,13.0321618 C12.7014048,15.2264283 11.9420726,18.4755197 10.9714209,22.821966 C10.4650517,19.8258376 9.78989278,16.5767461 8.98803082,13.0321618 L5.99234543,0.119969181 L8.86035313e-05,0.119969181 L7.30013355,30.0794812 L14.0517226,30.0794812 L17.0057644,18.5176064 C17.8917997,15.0155518 18.7357483,11.5551409 19.4529939,8.17934639 C20.0435364,11.0066851 20.8453984,14.4245663 21.8581368,18.5176064 L24.8121785,30.0794812 L31.6058543,30.0794812 L38.8633695,0.119969181 L33.0403454,0.119969181 Z" id="Fill-4" fill="#000000" mask="url(#mask-2)"></path>
                    </g>
                    <path d="M73.2113258,7.79963596 C70.3419005,7.79963596 68.1055474,8.93907737 66.7126998,10.9645541 L66.7126998,8.51688154 L61.6069213,8.51688154 L61.6069213,30.0794369 L67.092809,30.0794369 L67.092809,17.0830709 C67.092809,14.3824353 68.9069663,12.5257483 71.4388122,12.5257483 C74.0127448,12.5257483 75.447679,14.0869425 75.447679,16.9563679 L75.447679,30.0794369 L80.9331236,30.0794369 L80.9331236,15.3105573 C80.9331236,10.7957644 78.1062279,7.79963596 73.2113258,7.79963596" id="Fill-7" fill="#000000"></path>
                    <path d="M43.5894819,16.7876225 C44.2225541,13.8761104 45.952538,12.1040398 48.7798767,12.1040398 C51.6913888,12.1040398 53.4634594,13.8761104 53.6747788,16.7876225 L43.5894819,16.7876225 Z M59.0335204,18.5601361 C59.0335204,11.808547 55.4047628,7.79968026 48.9486665,7.79968026 C42.239164,7.79968026 38.1040372,12.6945823 38.1040372,19.4040848 C38.1040372,26.2819339 42.4504835,30.7546401 49.412949,30.7546401 C53.0837933,30.7546401 55.9953053,29.6156417 59.0335204,26.53534 L55.9532186,23.1595454 C54.6029008,24.2985438 53.5059891,25.0583191 52.6195108,25.4800719 C51.7760051,25.9022677 50.7632668,26.1131441 49.539209,26.1131441 C45.952538,26.1131441 43.969591,24.0455807 43.4632218,20.7118729 L58.949347,20.7118729 C58.9914337,20.0792437 59.0335204,19.3615551 59.0335204,18.5601361 L59.0335204,18.5601361 Z" id="Fill-9" fill="#000000"></path>
                    <path d="M121.355295,15.6060944 C120.806396,17.8849772 120.089151,21.091982 119.287732,25.1850222 C118.527956,21.5979082 117.768624,18.3913464 117.050935,15.6060944 L115.194248,8.51692584 L110.131,8.51692584 L108.274313,15.6060944 C107.556624,18.3488167 106.839378,21.5137348 106.080046,25.1004058 C105.278184,21.0073657 104.560939,17.8424475 104.012483,15.6060944 L102.282056,8.51692584 L96.5011185,8.51692584 L96.5024475,8.52135602 L91.7355775,8.51692584 L91.7355775,0.457991653 L86.2501329,3.59012648 L86.2501329,8.51692584 L82.4100559,8.51692584 L82.4100559,12.6945823 L86.2501329,12.6945823 L86.2501329,24.502775 C86.2501329,28.2006433 88.1201104,30.12334 92.0758151,30.12334 L96.5228263,30.12334 L96.5228263,25.5660173 L91.7355775,25.5660173 L91.7355775,12.6945823 L97.6622677,12.6945823 L102.493375,30.0794812 L109.033645,30.0794812 L110.552752,24.2143705 C111.269998,21.5137348 111.90307,18.6022228 112.536143,15.4373047 C113.253388,18.6443095 113.928547,21.5558215 114.645793,24.2143705 L116.249517,30.0794812 L122.7477,30.0794812 L128.739513,8.51692584 L123.085279,8.51692584 L121.355295,15.6060944 Z" id="Fill-11" fill="#000000"></path>
                    <path d="M140.343652,26.1130555 C136.925771,26.1130555 134.689418,23.4545066 134.689418,19.2772931 C134.689418,15.184253 136.925771,12.4415307 140.343652,12.4415307 C143.719447,12.4415307 145.9558,15.184253 145.9558,19.2772931 C145.9558,23.4545066 143.719447,26.1130555 140.343652,26.1130555 M140.343652,7.79959165 C133.803382,7.79959165 129.119357,12.4415307 129.119357,19.2772931 C129.119357,26.1130555 133.803382,30.7545515 140.343652,30.7545515 C146.841835,30.7545515 151.525861,26.1130555 151.525861,19.2772931 C151.525861,12.4415307 146.841835,7.79959165 140.343652,7.79959165" id="Fill-13" fill="#000000"></path>
                    <path d="M159.078426,11.6816668 L159.078426,8.51674864 L153.972647,8.51674864 L153.972647,30.079304 L159.457649,30.079304 L159.457649,19.0743024 C159.457649,15.1921387 160.948403,13.242861 163.860358,13.242861 C164.577604,13.242861 164.502734,13.2255833 165.574837,13.2255833 L165.584583,8.22169888 L164.479254,8.22169888 C161.989495,8.22169888 160.217424,9.36069727 159.078426,11.6816668" id="Fill-15" fill="#000000"></path>
                    <g id="Group-19" transform="translate(180.308186, 0.000000)">
                        <mask id="mask-4" fill="white">
                            <use xlink:href="#path-3"></use>
                        </mask>
                        <g id="Clip-18"></g>
                        <path d="M11.6335994,7.79963596 C8.9750504,7.79963596 6.907487,8.77028764 5.5150825,10.4581849 L5.5150825,0.11992488 L0.0291948636,0.11992488 L0.0291948636,30.0794369 L5.5150825,30.0794369 L5.5150825,17.0830709 C5.5150825,14.3824353 7.32923981,12.5257483 9.86108571,12.5257483 C12.4354613,12.5257483 13.8699525,14.0869425 13.8699525,16.9563679 L13.8699525,30.0794369 L19.3553971,30.0794369 L19.3553971,15.3105573 C19.3553971,10.7957644 16.5285014,7.79963596 11.6335994,7.79963596" id="Fill-17" fill="#000000" mask="url(#mask-4)"></path>
                    </g>
                    <path d="M173.279224,0.458035955 L167.793779,3.62384013 L167.793779,8.49880642 L167.793779,12.6764629 L167.793779,24.4846555 C167.793779,28.1825239 169.663757,30.1047775 173.619461,30.1047775 L177.899012,30.1047775 L177.899012,25.5478979 L173.279224,25.5478979 L173.279224,12.6764629 L178.162607,12.6764629 L178.162607,8.49880642 L173.279224,8.49880642 L173.279224,0.458035955 Z" id="Fill-20" fill="#000000"></path>
                    <polygon id="Fill-22" fill="#000000" points="7.05111332 46.6854665 7.05111332 45.2469881 8.12100096 45.2469881 8.12100096 39.8271101 7.05111332 39.8271101 7.05111332 38.3881888 10.9970716 38.3881888 10.9970716 39.8271101 9.92762697 39.8271101 9.92762697 45.2469881 10.9970716 45.2469881 10.9970716 46.6854665"></polygon>
                    <polygon id="Fill-24" fill="#000000" points="16.3932039 42.7627666 15.5971011 41.0987923 15.5612167 41.0987923 15.5612167 46.6852449 13.8613579 46.6852449 13.8613579 38.3884103 15.8345586 38.3884103 18.1050241 42.3104456 18.9015698 43.9753059 18.9370112 43.9753059 18.9370112 38.3884103 20.637313 38.3884103 20.637313 46.6852449 18.6636693 46.6852449"></polygon>
                    <path d="M23.4417034,45.4849329 L24.6298767,44.2843551 C25.188522,44.9147692 25.9022234,45.235514 26.7102876,45.235514 C27.5896777,45.235514 28.0176327,44.8430003 28.0176327,44.2373952 C28.0176327,43.7846311 27.8275782,43.4519249 27.0549554,43.3456006 L26.2349297,43.2388334 C24.487225,43.0124514 23.6911223,42.1565413 23.6911223,40.7659088 C23.6911223,39.2795846 24.8558157,38.2455814 26.8055364,38.2455814 C28.0535172,38.2455814 29.0046761,38.662018 29.6820501,39.4107178 L28.4814722,40.6228141 C28.0894016,40.1594177 27.5542363,39.8391159 26.6983262,39.8391159 C25.8898189,39.8391159 25.4977483,40.1474562 25.4977483,40.6467371 C25.4977483,41.2173438 25.7950132,41.4317644 26.4847917,41.5389746 L27.3048173,41.6696648 C29.0046761,41.9430067 29.8247018,42.7036681 29.8247018,44.1297419 C29.8247018,45.7223904 28.6595653,46.8281624 26.5911159,46.8281624 C25.1415621,46.8281624 24.1545188,46.2695172 23.4417034,45.4849329" id="Fill-26" fill="#000000"></path>
                    <polygon id="Fill-28" fill="#000000" points="36.2784058 39.9934632 36.2784058 46.6852449 34.4713368 46.6852449 34.4713368 39.9934632 32.2247942 39.9934632 32.2247942 38.3884103 38.5249483 38.3884103 38.5249483 39.9934632"></polygon>
                    <polygon id="Fill-30" fill="#000000" points="41.1154498 46.6854665 41.1154498 45.2469881 42.1853374 45.2469881 42.1853374 39.8271101 41.1154498 39.8271101 41.1154498 38.3881888 45.061408 38.3881888 45.061408 39.8271101 43.9919634 39.8271101 43.9919634 45.2469881 45.061408 45.2469881 45.061408 46.6854665"></polygon>
                    <polygon id="Fill-32" fill="#000000" points="51.7056982 39.9934632 51.7056982 46.6852449 49.8990722 46.6852449 49.8990722 39.9934632 47.6520867 39.9934632 47.6520867 38.3884103 53.9522408 38.3884103 53.9522408 39.9934632"></polygon>
                    <path d="M58.4214915,38.3884103 L58.4214915,43.475582 C58.4214915,44.6411615 58.8490035,45.2232867 59.9188912,45.2232867 C60.9887788,45.2232867 61.4167339,44.6411615 61.4167339,43.475582 L61.4167339,38.3884103 L63.175957,38.3884103 L63.175957,43.2859705 C63.175957,45.7345291 62.2961239,46.8283396 59.9188912,46.8283396 C57.5416584,46.8283396 56.6622684,45.7345291 56.6622684,43.2859705 L56.6622684,38.3884103 L58.4214915,38.3884103 Z" id="Fill-34" fill="#000000"></path>
                    <polygon id="Fill-36" fill="#000000" points="69.7961027 39.9934632 69.7961027 46.6852449 67.9890337 46.6852449 67.9890337 39.9934632 65.7424912 39.9934632 65.7424912 38.3884103 72.0426453 38.3884103 72.0426453 39.9934632"></polygon>
                    <polygon id="Fill-38" fill="#000000" points="74.7753111 46.6854665 74.7753111 38.3881888 80.4215711 38.3881888 80.4215711 39.9932417 76.5823801 39.9932417 76.5823801 41.6931005 79.8748873 41.6931005 79.8748873 43.285749 76.5823801 43.285749 76.5823801 45.0804135 80.4215711 45.0804135 80.4215711 46.6854665"></polygon>
                    <path d="M87.5646106,42.5369605 C87.5646106,39.7202543 89.0150504,38.2454485 91.213747,38.2454485 C93.4124437,38.2454485 94.8628835,39.7202543 94.8628835,42.5369605 C94.8628835,45.3536668 93.4124437,46.8284726 91.213747,46.8284726 C89.0150504,46.8284726 87.5646106,45.3536668 87.5646106,42.5369605 M92.9490472,43.1554132 L92.9490472,41.9185079 C92.9490472,40.5996443 92.2955961,39.8509445 91.213747,39.8509445 C90.1318979,39.8509445 89.4784469,40.5996443 89.4784469,41.9185079 L89.4784469,43.1554132 C89.4784469,44.4747197 90.1318979,45.2229766 91.213747,45.2229766 C92.2955961,45.2229766 92.9490472,44.4747197 92.9490472,43.1554132" id="Fill-40" fill="#000000"></path>
                    <polygon id="Fill-42" fill="#000000" points="97.8697329 46.6854665 97.8697329 38.3881888 103.373341 38.3881888 103.373341 39.9932417 99.6759159 39.9932417 99.6759159 41.6931005 102.826214 41.6931005 102.826214 43.285749 99.6759159 43.285749 99.6759159 46.6854665"></polygon>
                    <polygon id="Fill-44" fill="#000000" points="114.176593 39.9934632 114.176593 46.6852449 112.369967 46.6852449 112.369967 39.9934632 110.123424 39.9934632 110.123424 38.3884103 116.423578 38.3884103 116.423578 39.9934632"></polygon>
                    <polygon id="Fill-46" fill="#000000" points="119.156643 46.6854665 119.156643 38.3881888 124.80246 38.3881888 124.80246 39.9932417 120.962826 39.9932417 120.962826 41.6931005 124.255776 41.6931005 124.255776 43.285749 120.962826 43.285749 120.962826 45.0804135 124.80246 45.0804135 124.80246 46.6854665"></polygon>
                    <path d="M127.333685,42.596192 C127.333685,39.7910042 128.772164,38.2457586 131.006302,38.2457586 C132.528067,38.2457586 133.502706,38.8642112 134.108754,40.1950363 L132.55199,41.0035435 C132.338013,40.314208 131.898096,39.8503685 131.006302,39.8503685 C129.948819,39.8503685 129.247522,40.56407 129.247522,41.8714151 L129.247522,43.2026831 C129.247522,44.5100283 129.948819,45.2232867 131.006302,45.2232867 C131.898096,45.2232867 132.409782,44.6646414 132.659201,43.9872674 L134.132677,44.8427345 C133.515111,46.1031197 132.528067,46.8283396 131.006302,46.8283396 C128.772164,46.8283396 127.333685,45.4018228 127.333685,42.596192" id="Fill-48" fill="#000000"></path>
                    <polygon id="Fill-50" fill="#000000" points="141.810705 43.2858376 138.648888 43.2858376 138.648888 46.6855551 136.842262 46.6855551 136.842262 38.3882774 138.648888 38.3882774 138.648888 41.6931891 141.810705 41.6931891 141.810705 38.3882774 143.617774 38.3882774 143.617774 46.6855551 141.810705 46.6855551"></polygon>
                    <polygon id="Fill-52" fill="#000000" points="149.453203 42.7627666 148.656657 41.0987923 148.620772 41.0987923 148.620772 46.6852449 146.920914 46.6852449 146.920914 38.3884103 148.894114 38.3884103 151.165023 42.3104456 151.961126 43.9753059 151.99701 43.9753059 151.99701 38.3884103 153.696426 38.3884103 153.696426 46.6852449 151.723225 46.6852449"></polygon>
                    <path d="M156.477026,42.5369605 C156.477026,39.7202543 157.927466,38.2454485 160.126162,38.2454485 C162.325302,38.2454485 163.776185,39.7202543 163.776185,42.5369605 C163.776185,45.3536668 162.325302,46.8284726 160.126162,46.8284726 C157.927466,46.8284726 156.477026,45.3536668 156.477026,42.5369605 M161.861906,43.1554132 L161.861906,41.9185079 C161.861906,40.5996443 161.208898,39.8509445 160.126162,39.8509445 C159.045199,39.8509445 158.390862,40.5996443 158.390862,41.9185079 L158.390862,43.1554132 C158.390862,44.4747197 159.045199,45.2229766 160.126162,45.2229766 C161.208898,45.2229766 161.861906,44.4747197 161.861906,43.1554132" id="Fill-54" fill="#000000"></path>
                    <polygon id="Fill-56" fill="#000000" points="166.556519 46.6854665 166.556519 38.3881888 168.363145 38.3881888 168.363145 45.0804135 171.525405 45.0804135 171.525405 46.6854665"></polygon>
                    <path d="M173.723969,42.5369605 C173.723969,39.7202543 175.17308,38.2454485 177.372663,38.2454485 C179.571802,38.2454485 181.022242,39.7202543 181.022242,42.5369605 C181.022242,45.3536668 179.571802,46.8284726 177.372663,46.8284726 C175.17308,46.8284726 173.723969,45.3536668 173.723969,42.5369605 M179.108406,43.1554132 L179.108406,41.9185079 C179.108406,40.5996443 178.454512,39.8509445 177.372663,39.8509445 C176.290813,39.8509445 175.636919,40.5996443 175.636919,41.9185079 L175.636919,43.1554132 C175.636919,44.4747197 176.290813,45.2229766 177.372663,45.2229766 C178.454512,45.2229766 179.108406,44.4747197 179.108406,43.1554132" id="Fill-58" fill="#000000"></path>
                    <path d="M188.93755,45.3659384 L188.878186,45.3659384 C188.759457,46.1983685 187.998796,46.8283396 186.750372,46.8283396 C184.848497,46.8283396 183.350654,45.3544199 183.350654,42.572712 C183.350654,39.7794857 184.860458,38.2457586 187.107001,38.2457586 C188.580921,38.2457586 189.685807,38.8992096 190.304702,40.1711133 L188.830783,41.015505 C188.580921,40.3731294 188.069678,39.8508116 187.107001,39.8508116 C185.98971,39.8508116 185.264048,40.4927441 185.264048,41.8714151 L185.264048,43.2022401 C185.264048,44.5813541 185.98971,45.2237297 187.107001,45.2237297 C188.010314,45.2237297 188.735091,44.7957746 188.735091,43.9872674 L188.735091,43.5708308 L187.190288,43.5708308 L187.190288,42.0619127 L190.459316,42.0619127 L190.459316,46.685688 L188.93755,46.685688 L188.93755,45.3659384 Z" id="Fill-60" fill="#000000"></path>
                    <polygon id="Fill-62" fill="#000000" points="195.200801 46.6854665 195.200801 43.4403621 192.359728 38.3881888 194.380775 38.3881888 196.163478 41.6931005 196.187844 41.6931005 197.899221 38.3881888 199.860903 38.3881888 197.019388 43.4284006 197.019388 46.6854665"></polygon>
                </g>
            </g>
        </g>
    </g>
</svg>